<svg xmlns="http://www.w3.org/2000/svg" version="1.1" xmlns:xlink="http://www.w3.org/1999/xlink" xmlns:svgjs="http://svgjs.dev/svgjs" viewBox="0 0 800 800"><defs><linearGradient x1="50%" y1="0%" x2="50%" y2="100%" id="ffflurry-grad" gradientTransform="rotate(270)"><stop stop-color="hsl(240, 18%, 14%)" stop-opacity="1" offset="0%"></stop><stop stop-color="#68D2DF" stop-opacity="1" offset="45%"></stop><stop stop-color="#467A87" stop-opacity="1" offset="100%"></stop></linearGradient></defs><rect width="100%" height="100%" fill="hsl(240, 18%, 14%)"></rect><g fill="url(#ffflurry-grad)"><rect width="204" height="2" x="650" y="45" rx="1" transform="rotate(45, 752, 46)" opacity="0.66"></rect><rect width="125" height="2" x="451.5" y="259" rx="1" transform="rotate(45, 514, 260)" opacity="0.74"></rect><rect width="122" height="2" x="250" y="484" rx="1" transform="rotate(45, 311, 485)" opacity="0.80"></rect><rect width="351" height="2" x="546.5" y="330" rx="1" transform="rotate(45, 722, 331)" opacity="0.98"></rect><rect width="96" height="2" x="189" y="738" rx="1" transform="rotate(45, 237, 739)" opacity="0.80"></rect><rect width="170" height="2" x="363" y="730" rx="1" transform="rotate(45, 448, 731)" opacity="0.24"></rect><rect width="147" height="2" x="661.5" y="164" rx="1" transform="rotate(45, 735, 165)" opacity="0.44"></rect><rect width="416" height="2" x="-85" y="74" rx="1" transform="rotate(45, 123, 75)" opacity="0.25"></rect><rect width="144" height="2" x="293" y="257" rx="1" transform="rotate(45, 365, 258)" opacity="0.28"></rect><rect width="304" height="2" x="-100" y="715" rx="1" transform="rotate(45, 52, 716)" opacity="0.85"></rect><rect width="136" height="2" x="643" y="676" rx="1" transform="rotate(45, 711, 677)" opacity="0.74"></rect><rect width="277" height="2" x="87.5" y="605" rx="1" transform="rotate(45, 226, 606)" opacity="0.73"></rect><rect width="97" height="2" x="584.5" y="249" rx="1" transform="rotate(45, 633, 250)" opacity="0.92"></rect><rect width="69" height="2" x="531.5" y="690" rx="1" transform="rotate(45, 566, 691)" opacity="0.50"></rect><rect width="123" height="2" x="289.5" y="627" rx="1" transform="rotate(45, 351, 628)" opacity="0.63"></rect><rect width="181" height="2" x="114.5" y="195" rx="1" transform="rotate(45, 205, 196)" opacity="0.99"></rect><rect width="113" height="2" x="166.5" y="358" rx="1" transform="rotate(45, 223, 359)" opacity="0.11"></rect><rect width="322" height="2" x="212" y="93" rx="1" transform="rotate(45, 373, 94)" opacity="0.33"></rect><rect width="175" height="2" x="382.5" y="554" rx="1" transform="rotate(45, 470, 555)" opacity="0.64"></rect><rect width="76" height="2" x="297" y="745" rx="1" transform="rotate(45, 335, 746)" opacity="0.90"></rect><rect width="198" height="2" x="0" y="481" rx="1" transform="rotate(45, 99, 482)" opacity="0.93"></rect><rect width="104" height="2" x="91" y="747" rx="1" transform="rotate(45, 143, 748)" opacity="0.07"></rect><rect width="85" height="2" x="487.5" y="91" rx="1" transform="rotate(45, 530, 92)" opacity="0.78"></rect><rect width="265" height="2" x="577.5" y="481" rx="1" transform="rotate(45, 710, 482)" opacity="0.59"></rect><rect width="198" height="2" x="442" y="434" rx="1" transform="rotate(45, 541, 435)" opacity="0.81"></rect><rect width="257" height="2" x="-62.5" y="304" rx="1" transform="rotate(45, 66, 305)" opacity="0.11"></rect><rect width="135" height="2" x="19.5" y="601" rx="1" transform="rotate(45, 87, 602)" opacity="0.84"></rect><rect width="220" height="2" x="284" y="376" rx="1" transform="rotate(45, 394, 377)" opacity="0.23"></rect><rect width="106" height="2" x="589" y="61" rx="1" transform="rotate(45, 642, 62)" opacity="0.17"></rect></g></svg>