<svg xmlns="http://www.w3.org/2000/svg" version="1.1" xmlns:xlink="http://www.w3.org/1999/xlink" xmlns:svgjs="http://svgjs.dev/svgjs" viewBox="0 0 800 800"><g fill="#68d2df"><path d="M506 522H556C584 522 606 544 606 572H556C528 572 506 550 506 522Z " transform="matrix(-0.38107665694954945,-0.13870056010330872,0.13870056010330872,-0.38107665694954945,692.0094148874397,832.5664427688432)" opacity="0.62"></path><path d="M455 402H505C533 402 555 424 555 452H505C477 452 455 430 455 402Z " transform="matrix(-0.36448110020037267,0.038308507305352665,-0.038308507305352665,-0.36448110020037267,705.4206882205737,563.287633596356)" opacity="0.56"></path><path d="M247 342H297C325 342 347 364 347 392H297C269 392 247 370 247 342Z " transform="matrix(-0.2720734899937222,0.17668659030967007,-0.17668659030967007,-0.2720734899937222,442.6498051717844,414.37505350572405)" opacity="0.50"></path><path d="M295 730H345C373 730 395 752 395 780H345C317 780 295 758 295 730Z " transform="matrix(-0.24016854547045993,0.20152533792464683,-0.20152533792464683,-0.24016854547045993,580.009778320417,866.8010102461941)" opacity="0.48"></path><path d="M588 628H638C666 628 688 650 688 678H638C610 678 588 656 588 628Z " transform="matrix(-0.1720409649029639,-0.44818203634808074,0.44818203634808074,-0.1720409649029639,455.0992658727942,1051.282889271711)" opacity="0.74"></path><path d="M697 627H747C775 627 797 649 797 677H747C719 677 697 655 697 627Z " transform="matrix(0.2971443545457785,-0.4755303706892256,0.4755303706892256,0.2971443545457785,214.98736546492842,813.483067741004)" opacity="0.86"></path><path d="M446 33H496C524 33 546 55 546 83H496C468 83 446 61 446 33Z " transform="matrix(-0.27612812226077804,0.1725440008010319,-0.1725440008010319,-0.27612812226077804,642.9671006878057,-11.566393306186711)" opacity="0.50"></path><path d="M694 406H744C772 406 794 428 794 456H744C716 456 694 434 694 406Z " transform="matrix(0.2971443545457785,-0.4755303706892256,0.4755303706892256,0.2971443545457785,317.97101045088465,656.7253789835534)" opacity="0.86"></path><path d="M310 248H360C388 248 410 270 410 298H360C332 298 310 276 310 248Z " transform="matrix(-0.23585826182445407,0.20502845900838515,-0.20502845900838515,-0.23585826182445407,500.8817435660926,263.57906023505734)" opacity="0.48"></path><path d="M251 127H301C329 127 351 149 351 177H301C273 177 251 155 251 127Z " transform="matrix(-0.1918652656541563,0.22865611963738322,-0.22865611963738322,-0.1918652656541563,393.50717514678325,112.3380283685794)" opacity="0.46"></path><path d="M199 230H249C277 230 299 252 299 280H249C221 280 199 258 199 230Z " transform="matrix(-0.3267577633040547,0.11251172076235465,-0.11251172076235465,-0.3267577633040547,359.05317185711,310.30781117270766)" opacity="0.53"></path><path d="M3 144H53C81 144 103 166 103 194H53C25 194 3 172 3 144Z " transform="matrix(-0.2335851594269638,-0.4045813640215772,0.4045813640215772,-0.2335851594269638,-2.994237070017455,229.91870423630044)" opacity="0.72"></path><path d="M182 555H232C260 555 282 577 282 605H232C204 605 182 583 182 555Z " transform="matrix(-0.34547919981494785,0.07976015793278392,-0.07976015793278392,-0.34547919981494785,358.4120659580825,761.8735792522639)" opacity="0.54"></path><path d="M-2 267H48C76 267 98 289 98 317H48C20 317 -2 295 -2 267Z " transform="matrix(-0.11879127267776575,-0.4764457715264403,0.4764457715264403,-0.11879127267776575,-85.42018419718781,349.5564486551767)" opacity="0.75"></path><path d="M490 158H540C568 158 590 180 590 208H540C512 208 490 186 490 158Z " transform="matrix(-0.3842189704103977,-0.06085430659052036,0.06085430659052036,-0.3842189704103977,736.3419059155495,286.1733971439838)" opacity="0.60"></path><path d="M313 28H363C391 28 413 50 413 78H363C335 78 313 56 313 28Z " transform="matrix(-0.004170688701427755,0.2389385956786384,-0.2389385956786384,-0.004170688701427755,377.1777055695861,-33.513663730170066)" opacity="0.36"></path><path d="M571 46H621C649 46 671 68 671 96H621C593 96 571 74 571 46Z " transform="matrix(-0.21367680469527944,-0.41936434167772757,0.41936434167772757,-0.21367680469527944,723.9184274566499,346.5963093152336)" opacity="0.72"></path><path d="M-1 481H49C77 481 99 503 99 531H49C21 531 -1 509 -1 481Z " transform="matrix(-0.11879127267776575,-0.4764457715264403,0.4764457715264403,-0.11879127267776575,-186.2607880311683,589.4542267797451)" opacity="0.75"></path></g><g fill="none" stroke-width="3" stroke="#68d2df"><path d="M595 194H645C673 194 695 216 695 244H645C617 244 595 222 595 194Z " transform="matrix(-0.1720409649029639,-0.44818203634808074,0.44818203634808074,-0.1720409649029639,657.814556402182,545.7543847582613)" opacity="0.74"></path><path d="M171 24H221C249 24 271 46 271 74H221C193 74 171 52 171 24Z " transform="matrix(-0.01267127867006296,0.24178240031176726,-0.24178240031176726,-0.01267127867006296,235.64769020136055,-3.8130178140674786)" opacity="0.37"></path><path d="M613 519H663C691 519 713 541 713 569H663C635 569 613 547 613 519Z " transform="matrix(-0.09443902664217457,-0.4858466737763246,0.4858466737763246,-0.09443902664217457,461.31248412944115,917.4911752070461)" opacity="0.76"></path><path d="M234 645H284C312 645 334 667 334 695H284C256 695 234 673 234 645Z " transform="matrix(-0.2720734899937222,0.17668659030967007,-0.17668659030967007,-0.2720734899937222,479.64888666569607,802.1102466478476)" opacity="0.50"></path><path d="M472 628H522C550 628 572 650 572 678H522C494 678 472 656 472 628Z " transform="matrix(-0.3784420286151444,-0.01321548684725883,0.01321548684725883,-0.3784420286151444,710.9170260258454,907.0211288199583)" opacity="0.58"></path><path d="M357 632H407C435 632 457 654 457 682H407C379 682 357 660 357 632Z " transform="matrix(-0.25399853533482897,0.191401625021738,-0.191401625021738,-0.25399853533482897,636.1282715205573,745.9765763311353)" opacity="0.49"></path><path d="M345 399H395C423 399 445 421 445 449H395C367 449 345 427 345 399Z " transform="matrix(-0.24461015697119803,0.19808139947260067,-0.19808139947260067,-0.24461015697119803,575.6075253800059,449.47255376411067)" opacity="0.48"></path><path d="M410 278H460C488 278 510 300 510 328H460C432 328 410 306 410 278Z " transform="matrix(-0.3049138423539133,0.14218365976709574,-0.14218365976709574,-0.3049138423539133,643.3420163922301,329.9844107403717)" opacity="0.52"></path><path d="M683 727H733C761 727 783 749 783 777H733C705 777 683 755 683 727Z " transform="matrix(0.22336070864930127,-0.5016763654716356,0.5016763654716356,0.22336070864930127,192.0159737253922,951.7615229864343)" opacity="0.84"></path><path d="M706 519H756C784 519 806 541 806 569H756C728 569 706 547 706 519Z " transform="matrix(0.35173696769627055,-0.45020278853580853,0.45020278853580853,0.35173696769627055,245.1765354581396,693.0083977063001)" opacity="0.88"></path><path d="M424 727H474C502 727 524 749 524 777H474C446 777 424 755 424 727Z " transform="matrix(-0.3264514396566992,0.11240624507196656,-0.11240624507196656,-0.3264514396566992,713.2674786913942,944.2109224577257)" opacity="0.53"></path><path d="M400 515H450C478 515 500 537 500 565H450C422 565 400 543 400 515Z " transform="matrix(-0.28484990804927507,0.16445817109088906,-0.16445817109088906,-0.28484990804927507,666.9898710112539,619.8127733557085)" opacity="0.50"></path><path d="M552 727H602C630 727 652 749 652 777H602C574 777 552 755 552 727Z " transform="matrix(-0.29509370547162916,-0.3394664759443434,0.3394664759443434,-0.29509370547162916,524.3676207837746,1178.2692850331598)" opacity="0.69"></path><path d="M375 143H425C453 143 475 165 475 193H425C397 193 375 171 375 143Z " transform="matrix(-0.24526604034366284,0.19861252335526078,-0.19861252335526078,-0.24526604034366284,562.6049710697405,124.79437235174953)" opacity="0.48"></path><path d="M233 450H283C311 450 333 472 333 500H283C255 500 233 478 233 450Z " transform="matrix(-0.28900311842948345,0.16019704444353927,-0.16019704444353927,-0.28900311842948345,440.881478626225,566.9407176764831)" opacity="0.51"></path><path d="M121 121H171C199 121 221 143 221 171H171C143 171 121 149 121 121Z " transform="matrix(-0.33695218942159283,0.09661948553796974,-0.09661948553796974,-0.33695218942159283,242.72526927963594,178.67308762855973)" opacity="0.54"></path><path d="M13 373H63C91 373 113 395 113 423H63C35 423 13 401 13 373Z " transform="matrix(-0.1865575303889092,-0.4395019993289483,0.4395019993289483,-0.1865575303889092,-100.16867131842014,499.9385230525096)" opacity="0.73"></path></g></svg>