<svg xmlns="http://www.w3.org/2000/svg" version="1.1" xmlns:xlink="http://www.w3.org/1999/xlink" xmlns:svgjs="http://svgjs.dev/svgjs" viewBox="0 0 800 800"><defs><filter id="llleaves-blur-2" x="-100%" y="-100%" width="400%" height="400%"><feGaussianBlur in="SourceGraphic" stdDeviation="2"></feGaussianBlur></filter><filter id="llleaves-blur-3" x="-100%" y="-100%" width="400%" height="400%"><feGaussianBlur in="SourceGraphic" stdDeviation="4"></feGaussianBlur></filter><filter id="llleaves-blur-4" x="-100%" y="-100%" width="400%" height="400%"><feGaussianBlur in="SourceGraphic" stdDeviation="12"></feGaussianBlur></filter></defs><g fill="#68d2df"><path d="M332 259H382C410 259 432 281 432 309H382C354 309 332 287 332 259Z " transform="matrix(-0.30589380337199307,0.14264062309451972,-0.14264062309451972,-0.30589380337199307,539.3613698469449,316.3851221355395)" filter="url(#llleaves-blur-2)" opacity="0.52"></path><path d="M89 562H139C167 562 189 584 189 612H139C111 612 89 590 89 562Z " transform="matrix(-0.3758634287084543,-0.16734518021942363,0.16734518021942363,-0.3758634287084543,93.01339580167348,830.8928127023624)" opacity="0.63"></path><path d="M223 471H273C301 471 323 493 323 521H273C245 521 223 499 223 471Z " transform="matrix(-0.31662594086796,0.12792518389038748,-0.12792518389038748,-0.31662594086796,422.88977306658524,618.1228914684324)" filter="url(#llleaves-blur-2)" opacity="0.52"></path><path d="M696 315H746C774 315 796 337 796 365H746C718 365 696 343 696 315Z " transform="matrix(-0.09455794823788594,-0.4864584723491271,0.4864584723491271,-0.09455794823788594,651.1443487867597,735.0477227733302)" opacity="0.76"></path><path d="M504 334H554C582 334 604 356 604 384H554C526 384 504 362 504 334Z " transform="matrix(-0.36235199656950506,-0.21772304496462525,0.21772304496462525,-0.36235199656950506,676.5804329572054,609.7029336788547)" opacity="0.65"></path><path d="M-4 245H46C74 245 96 267 96 295H46C18 295 -4 273 -4 245Z " transform="matrix(-0.11879150646493888,-0.4764467091955768,0.4764467091955768,-0.11879150646493888,-77.17620218541856,323.99025536853003)" opacity="0.75"></path><path d="M133 360H183C211 360 233 382 233 410H183C155 410 133 388 133 360Z " transform="matrix(-0.3835384295370192,-0.06074651950517233,0.06074651950517233,-0.3835384295370192,229.8001225957832,543.778908441199)" filter="url(#llleaves-blur-2)" opacity="0.60"></path><path d="M387 634H437C465 634 487 656 487 684H437C409 684 387 662 387 634Z " transform="matrix(-0.3520527373847182,0.06843211992562159,-0.06843211992562159,-0.3520527373847182,635.9438132681064,861.0979175290328)" filter="url(#llleaves-blur-2)" opacity="0.55"></path><path d="M270 186H320C348 186 370 208 370 236H320C292 236 270 214 270 186Z " transform="matrix(-0.2974312218620424,0.15154877701293437,-0.15154877701293437,-0.2974312218620424,447.1547829455828,225.26237916875195)" filter="url(#llleaves-blur-2)" opacity="0.51"></path><path d="M465 435H515C543 435 565 457 565 485H515C487 485 465 463 465 435Z " transform="matrix(-0.38452053911167894,-0.08173236368508163,0.08173236368508163,-0.38452053911167894,675.4311903473771,678.9716152891893)" filter="url(#llleaves-blur-2)" opacity="0.60"></path><path d="M588 248H638C666 248 688 270 688 298H638C610 298 588 276 588 248Z " transform="matrix(-0.22669099736784135,-0.4089613849416947,0.4089613849416947,-0.22669099736784135,670.9823982316001,595.804005874222)" opacity="0.72"></path><path d="M389 342H439C467 342 489 364 489 392H439C411 392 389 370 389 342Z " transform="matrix(-0.3520527373847182,0.06843211992562159,-0.06843211992562159,-0.3520527373847182,618.6657397245945,466.1616539728437)" filter="url(#llleaves-blur-2)" opacity="0.55"></path><path d="M695 708H745C773 708 795 730 795 758H745C717 758 695 736 695 708Z " transform="matrix(-0.09455794823788594,-0.4864584723491271,0.4864584723491271,-0.09455794823788594,458.8716112053149,1164.7225379584702)" opacity="0.76"></path><path d="M207 277H257C285 277 307 299 307 327H257C229 327 207 305 207 277Z " transform="matrix(-0.32764844613971483,0.11281840745735558,-0.11281840745735558,-0.32764844613971483,375.2768097100281,371.9555000176535)" filter="url(#llleaves-blur-2)" opacity="0.53"></path><path d="M578 724H628C656 724 678 746 678 774H628C600 774 578 752 578 724Z " transform="matrix(-0.2636806274516908,-0.376574962511642,0.376574962511642,-0.2636806274516908,511.53678711844196,1182.9858664186277)" opacity="0.71"></path><path d="M271 636H321C349 636 371 658 371 686H321C293 686 271 664 271 636Z " transform="matrix(-0.2974312218620424,0.15154877701293437,-0.15154877701293437,-0.2974312218620424,516.6491638232652,808.954880229658)" filter="url(#llleaves-blur-2)" opacity="0.51"></path><path d="M396 145H446C474 145 496 167 496 195H446C418 195 396 173 396 145Z " transform="matrix(-0.3264267379606689,0.11239773959592823,-0.11239773959592823,-0.3264267379606689,610.6939408617661,175.36315359352972)" filter="url(#llleaves-blur-2)" opacity="0.53"></path><path d="M322 729H372C400 729 422 751 422 779H372C344 779 322 757 322 729Z " transform="matrix(-0.30589380337199307,0.14264062309451972,-0.14264062309451972,-0.30589380337199307,593.3435246676493,931.5816159513214)" filter="url(#llleaves-blur-2)" opacity="0.52"></path><path d="M455 240H505C533 240 555 262 555 290H505C477 290 455 268 455 240Z " transform="matrix(-0.38452053911167894,-0.08173236368508163,0.08173236368508163,-0.38452053911167894,677.5237958748512,408.17278652556115)" filter="url(#llleaves-blur-2)" opacity="0.60"></path><path d="M451 537H501C529 537 551 559 551 587H501C473 587 451 565 451 537Z " transform="matrix(-0.38452053911167894,-0.08173236368508163,0.08173236368508163,-0.38452053911167894,647.7112017039353,819.0484571869895)" filter="url(#llleaves-blur-2)" opacity="0.60"></path><path d="M240 16H290C318 16 340 38 340 66H290C262 66 240 44 240 16Z " transform="matrix(0.034929900954776605,0.22053871506066997,-0.22053871506066997,0.034929900954776605,288.91241604060224,-24.38835330674013)" filter="url(#llleaves-blur-3)" opacity="0.34"></path><path d="M698 40H748C776 40 798 62 798 90H748C720 90 698 68 698 40Z " transform="matrix(-0.17951422804224654,-0.44431330582853906,0.44431330582853906,-0.17951422804224654,853.3962776967454,409.01477758249325)" opacity="0.74"></path></g><g fill="none" stroke-width="3" stroke="#68d2df"><path d="M118 22H168C196 22 218 44 218 72H168C140 72 118 50 118 22Z " transform="matrix(-0.09638946432384454,0.25110313946174073,-0.25110313946174073,-0.09638946432384454,195.99527756110768,9.344977393648257)" filter="url(#llleaves-blur-3)" opacity="0.41"></path><path d="M258 364H308C336 364 358 386 358 414H308C280 414 258 392 258 364Z " transform="matrix(-0.30119518543633733,0.1469027074564394,-0.1469027074564394,-0.30119518543633733,457.9132703149469,460.9188932381519)" filter="url(#llleaves-blur-2)" opacity="0.51"></path><path d="M6 27H56C84 27 106 49 106 77H56C28 77 6 55 6 27Z " transform="matrix(-0.375,4.592425496802574e-17,-4.592425496802574e-17,-0.375,77,71.5)" filter="url(#llleaves-blur-2)" opacity="0.57"></path><path d="M-2 607H48C76 607 98 629 98 657H48C20 657 -2 635 -2 607Z " transform="matrix(-0.11879150646493888,-0.4764467091955768,0.4764467091955768,-0.11879150646493888,-247.41232790128748,729.945674127229)" opacity="0.75"></path><path d="M574 497H624C652 497 674 519 674 547H624C596 547 574 525 574 497Z " transform="matrix(-0.2636806274516908,-0.376574962511642,0.376574962511642,-0.2636806274516908,591.9645810987779,894.6240641370473)" opacity="0.71"></path><path d="M9 362H59C87 362 109 384 109 412H59C31 412 9 390 9 362Z " transform="matrix(-0.18655821894079824,-0.43950362145554506,0.43950362145554506,-0.18655821894079824,-100.08096658578884,485.12874439596607)" opacity="0.73"></path><path d="M362 23H412C440 23 462 45 462 73H412C384 73 362 51 362 23Z " transform="matrix(-0.03020983913645152,0.24603939546064627,-0.24603939546064627,-0.03020983913645152,436.25634470632906,-51.91815865123661)" filter="url(#llleaves-blur-3)" opacity="0.38"></path><path d="M598 381H648C676 381 698 403 698 431H648C620 431 598 409 598 381Z " transform="matrix(-0.22669099736784135,-0.4089613849416947,0.4089613849416947,-0.22669099736784135,628.8574440080331,763.0435223735619)" opacity="0.72"></path><path d="M606 609H656C684 609 706 631 706 659H656C628 659 606 637 606 609Z " transform="matrix(-0.20060717112603288,-0.43020346678362215,0.43020346678362215,-0.20060717112603288,514.8493063178611,1043.398420703961)" opacity="0.73"></path><path d="M111 457H161C189 457 211 479 211 507H161C133 507 111 485 111 457Z " transform="matrix(-0.3840389739100091,-0.11012140372024225,0.11012140372024225,-0.3840389739100091,169.7517582063547,684.8363314235834)" filter="url(#llleaves-blur-2)" opacity="0.61"></path><path d="M450 728H500C528 728 550 750 550 778H500C472 778 450 756 450 728Z " transform="matrix(-0.38452053911167894,-0.08173236368508163,0.08173236368508163,-0.38452053911167894,630.7157997009731,1083.410147793635)" filter="url(#llleaves-blur-2)" opacity="0.60"></path><path d="M304 98H354C382 98 404 120 404 148H354C326 148 304 126 304 98Z " transform="matrix(-0.13641873054193254,0.24610590461115064,-0.24610590461115064,-0.13641873054193254,432.56325687901574,52.65801362431037)" filter="url(#llleaves-blur-3)" opacity="0.43"></path><path d="M344 439H394C422 439 444 461 444 489H394C366 489 344 467 344 439Z " transform="matrix(-0.3163426347790994,0.12781072080054903,-0.12781072080054903,-0.3163426347790994,577.9431725544199,560.4255585420858)" filter="url(#llleaves-blur-2)" opacity="0.52"></path><path d="M193 99H243C271 99 293 121 293 149H243C215 149 193 127 193 99Z " transform="matrix(-0.19680274117388225,0.2263956559009274,-0.2263956559009274,-0.19680274117388225,318.8961274369684,93.38939552163605)" filter="url(#llleaves-blur-3)" opacity="0.46"></path><path d="M188 582H238C266 582 288 604 288 632H238C210 632 188 610 188 582Z " transform="matrix(-0.3407230271294973,0.09129645996203642,-0.09129645996203642,-0.3407230271294973,374.50903165377645,792.0903199966401)" filter="url(#llleaves-blur-2)" opacity="0.54"></path><path d="M6 724H56C84 724 106 746 106 774H56C28 774 6 752 6 724Z " transform="matrix(-0.18655821894079824,-0.43950362145554506,0.43950362145554506,-0.18655821894079824,-262.7409522095185,913.3443087881684)" opacity="0.73"></path><path d="M-6 136H44C72 136 94 158 94 186H44C16 186 -6 164 -6 136Z " transform="matrix(-0.22070572318418616,-0.4150870946459005,0.4150870946459005,-0.22070572318418616,-13.117970417885793,214.79745359707363)" opacity="0.72"></path><path d="M466 34H516C544 34 566 56 566 84H516C488 84 466 62 466 34Z " transform="matrix(-0.26810462269140783,0.1808388514101799,-0.1808388514101799,-0.26810462269140783,665.011477541967,-18.49467458885978)" filter="url(#llleaves-blur-2)" opacity="0.50"></path><path d="M325 539H375C403 539 425 561 425 589H375C347 589 325 567 325 539Z " transform="matrix(-0.30589380337199307,0.14264062309451972,-0.14264062309451972,-0.30589380337199307,570.1594876898065,683.0338714413592)" filter="url(#llleaves-blur-2)" opacity="0.52"></path><path d="M579 26H629C657 26 679 48 679 76H629C601 76 579 54 579 26Z " transform="matrix(-0.3667329323915636,-0.20328338389046002,0.20328338389046002,-0.3667329323915636,849.3075618958801,197.56862801906908)" opacity="0.64"></path><path d="M695 447H745C773 447 795 469 795 497H745C717 497 695 475 695 447Z " transform="matrix(-0.09455794823788594,-0.4864584723491271,0.4864584723491271,-0.09455794823788594,585.8372724884371,879.0429134683818)" opacity="0.76"></path><path d="M88 259H138C166 259 188 281 188 309H138C110 309 88 287 88 259Z " transform="matrix(-0.3758634287084543,-0.16734518021942363,0.16734518021942363,-0.3758634287084543,142.3431219794504,413.83884862348145)" opacity="0.63"></path><path d="M505 631H555C583 631 605 653 605 681H555C527 681 505 659 505 631Z " transform="matrix(-0.36235199656950506,-0.21772304496462525,0.21772304496462525,-0.36235199656950506,613.2790405992812,1014.5391997049624)" opacity="0.65"></path><path d="M703 186H753C781 186 803 208 803 236H753C725 236 703 214 703 186Z " transform="matrix(-0.08621891237904976,-0.4889717502825172,0.4889717502825172,-0.08621891237904976,714.7498017118133,597.387918474715)" opacity="0.76"></path></g></svg>