<svg id="visual" viewBox="0 0 900 600" width="900" height="600" xmlns="http://www.w3.org/2000/svg" xmlns:xlink="http://www.w3.org/1999/xlink" version="1.1"><path d="M0 464L21.5 461.5C43 459 86 454 128.8 454.2C171.7 454.3 214.3 459.7 257.2 465C300 470.3 343 475.7 385.8 470.3C428.7 465 471.3 449 514.2 444.5C557 440 600 447 642.8 460C685.7 473 728.3 492 771.2 499.8C814 507.7 857 504.3 878.5 502.7L900 501L900 601L878.5 601C857 601 814 601 771.2 601C728.3 601 685.7 601 642.8 601C600 601 557 601 514.2 601C471.3 601 428.7 601 385.8 601C343 601 300 601 257.2 601C214.3 601 171.7 601 128.8 601C86 601 43 601 21.5 601L0 601Z" fill="#68D2DF" stroke-linecap="round" stroke-linejoin="miter"></path></svg>